<svg xmlns="http://www.w3.org/2000/svg" xmlns:xlink="http://www.w3.org/1999/xlink" version="1.1"
    viewBox="37.71 246.35 767.12 258.02">
    <defs></defs>
    <g>
        <path fill="rgb(23,15,17)" stroke="rgb(23,15,17)" paint-order="fill stroke markers"
            d=" M 242.2563047328406 361.7062881437331 C 241.77448091081294 359.1254079548077 241.29265708602364 356.5445274792673 240.81083325998028 353.96364671859703 C 240.32900943393693 351.3827659579268 239.84718560563974 348.8018849110383 239.3653617765805 346.22100357971163 C 238.88353794752126 343.64012224838496 238.40171411671068 341.05924063133523 237.91989028562486 338.47835873063684 C 237.43806645453904 335.89747682993846 236.95624262219962 333.3165946441107 236.47441879006564 330.73571217552114 C 235.99259495793166 328.1548297069316 235.51077112503617 325.5739469539042 235.02894729282096 322.99306391909954 C 234.54712346060575 320.41218088429486 234.06529962811564 317.8312975658421 233.5834757967743 315.25041396669315 C 233.10165196543298 312.6695303675442 232.6198281342974 310.08864648563406 232.13800430477298 307.50776232420606 C 231.65618047524856 304.92687816277805 231.1743566464049 302.3459937195734 230.69253281962773 299.76510899812496 C 230.21070899285056 297.1842242766765 229.72888516722253 294.60333927453286 229.24706134411 292.02245399551543 C 228.76523752099746 289.441568716498 228.28341369949635 286.8606831579634 227.8015898809525 284.27979732402054 C 227.31976606240863 281.69891149007765 226.86163111354261 279.11619601565593 226.3561184328468 276.5371389918581 C 225.850605752151 273.9580819680603 225.69982434968776 271.228105438451 224.7685137967776 268.80545518123364 C 223.83720324386744 266.3828049240163 222.43228485640532 263.99311629812473 220.76825511538584 262.00123744855404 C 219.10422537436637 260.00935859898334 217.0026313515939 258.2016767880574 214.78433535066074 256.85418208380946 C 212.5660393497276 255.50668737956155 209.99314778321138 254.47487168985452 207.458479109787 253.9162692230666 C 204.9238104363626 253.35766675627866 202.15554244426588 253.21237146975793 199.5763233101144 253.50256728308185 C 196.9971041759629 253.79276309640576 194.33033371390715 254.54957057846485 191.98316430487813 255.65744410301005 C 189.6359948958491 256.76531762755525 187.35671148756938 258.343067091687 185.4933068559402 260.1498084303531 C 183.62990222431102 261.95654976901926 181.98254089168063 264.18604095059055 180.80273651510296 266.49789213500674 C 179.6229321385253 268.8097433194229 179.11074767564992 271.4956194722074 178.4144805964742 274.0209155368502 C 177.71821351729847 276.54621160149304 177.2215829474998 279.1067505038701 176.62513404004864 281.6496685228636 C 176.02868513259747 284.19258654185705 175.43223618590744 286.7355049060712 174.8357871517672 289.2784236508109 C 174.23933811762694 291.82134239555063 173.6428890281548 294.36426149740515 173.04643983520717 296.90718099130186 C 172.44999064225954 299.45010048519856 171.85354137790253 301.99302034798205 171.2570919940814 304.5359406141911 C 170.66064261026028 307.0788608804001 170.0641931389751 309.6217815271418 169.46774353228045 312.1647025885559 C 168.8712939255858 314.70762364996995 168.27484421540194 317.25054510343324 167.67839435391352 319.79346698267534 C 167.0819444924251 322.33638886191744 166.48549451145874 324.879311144592 165.88904436334997 327.4222338640085 C 165.2925942152412 329.96515658342497 164.69614393170932 332.50807971752056 164.09969346526094 335.0510032991742 C 163.50324299881257 337.5939268808279 162.906792381046 340.1368508882673 162.31034156465975 342.6797753539303 C 161.7138907482735 345.22269981959334 161.47924413471628 347.9050742336751 160.52098856694343 350.30855009315246 C 159.56273299917058 352.7120259526298 158.2100737517406 355.10925202429706 156.56080815802264 357.1006305107942 C 154.91154256430468 359.0920089972913 152.8278087746704 360.90218322428973 150.62539500463572 362.25682101213533 C 148.42298123460105 363.61145879998094 145.8236412725005 364.44172781565214 143.34632553781466 365.2284572378677 C 140.86900980312882 366.01518666008326 138.28977605378927 366.3942839991097 135.7615005965207 366.9771975454287 C 133.23322513925214 367.5601110917477 130.70494920299146 368.14302474657296 128.17667279420323 368.72593851578176 C 125.648396385415 369.30885228499056 123.12011949962809 369.8917661647031 120.59184214379128 370.47468016068143 C 118.06356478795448 371.0575941566598 115.53528695727466 371.64050826510226 113.0070086591824 372.22342249165166 C 110.47873036109014 372.80633671820107 107.95045159047206 373.38925105913574 105.4221723552377 373.97216551997775 C 102.89389312000336 374.55507998081976 100.36561341472104 375.1379945579293 97.83733324777634 375.7209092567037 C 95.30905308083165 376.3038239554781 92.78077244647643 376.8867387723613 90.25249135356955 377.4696537126243 C 87.72421026066267 378.05256865288726 85.19592870314163 378.63548371305916 82.66764669033509 379.2183988982817 C 80.13936467752855 379.8013140835042 77.61108220306187 380.38422939039344 75.08279927673027 380.9671448239596 C 72.55451635039867 381.55006025752573 69.95531509410839 381.8842839411039 67.49794913234545 382.7158914996787 C 65.04058317058252 383.54749905825355 62.487862213406856 384.521349797461 60.33860350615272 385.95679017540846 C 58.18934479889859 387.3922305533559 56.17563720224316 389.27799205314426 54.602396888820635 391.3285337673632 C 53.02915657539811 393.3790754815821 51.72912769734855 395.8123952678837 50.89916162561759 398.2600404607221 C 50.06919555388662 400.70768565356053 50.034494161834154 403.42907990580136 49.62260045843483 406.01440492439383 C 49.21070675503551 408.5997299429863 48.82606641054459 411.18612823934154 48.42779940522165 413.7719905722771 C 48.029532399898706 416.35785290521267 47.631265417512 418.9437156805118 47.232998426497176 421.5295789220071 C 46.834731435482354 424.1154421635024 46.436464456891116 426.7013058554627 46.038197459132704 429.2871700212491 C 45.63993046137429 431.8730341870355 45.241663465513334 434.45889881123355 44.84339643994671 437.0447639167256 C 44.445129414380084 439.6306290222177 44.046862380176044 442.21649459391097 43.64859530573294 444.8023606542015 C 43.250328231289835 447.388226714492 42.852061137670255 449.9740932486136 42.45379399328807 452.5599602784689 C 42.05552684890589 455.1458273083242 41.65725967480873 457.7316948194782 41.25899243943985 460.31756283333345 C 40.860725204070974 462.9034308471887 40.46245792845373 465.48929934964593 40.0641905810748 468.0751683616005 C 39.665923233695864 470.6610373735551 39.03941889750228 473.21856441186503 38.86938835516627 475.8327769050608 C 38.699357812830264 478.4469893982566 38.55860264160348 481.1988381748832 39.044007327058765 483.7604433207751 C 39.52941201251405 486.322048466667 40.49140390939169 488.93695438903075 41.78181646789798 491.20240778041244 C 43.07222902640427 493.46786117179414 44.830733549943254 495.62907142631616 46.78648267809649 497.3531636690654 C 48.74223180624973 499.07725591181463 51.10691212238182 500.5508438943575 53.516311236817415 501.5469612369078 C 55.92571035125301 502.5430785794581 58.64061767402952 503.1695444346682 61.24287736471004 503.3298677243673 C 63.84513705539056 503.49019101406645 66.6164139968687 503.20172588163757 69.12986938090052 502.50890097510256 C 71.64332476493233 501.81607606856755 74.17101196034416 500.6439018836982 76.3236096689009 499.1729182851573 C 78.47620737745764 497.7019346866164 80.4867106967253 495.77292504030834 82.04545563224097 493.68299938385724 C 83.60420056775665 491.59307372740614 84.65644531848713 489.0491023820812 85.67607928199496 486.63336434645083 C 86.69571324550279 484.2176263108205 87.33419919055336 481.67016944737986 88.16325941328797 479.1885711700751 C 88.99231963602259 476.7069728927703 89.82138003157765 474.2253740687923 90.65044061840263 471.7437746826222 C 91.4795012052276 469.2621752964521 92.30856197108578 466.78057535824627 93.13762293423783 464.2989748530545 C 93.96668389738987 461.81737434786277 94.7957450457275 459.33577328546085 95.62480639731487 456.8541716514718 C 96.45386774890224 454.37257001748276 97.28292929176459 451.8909678212987 98.11199104376207 449.4093650491204 C 98.94105279575956 446.92776227694213 99.77011474505579 444.44615893777507 100.59917690929979 441.96455501840205 C 101.42823907354378 439.48295109902904 102.25730144104243 437.0013466080662 103.08636402922606 434.5197415328825 C 103.9154266174097 432.0381364576988 104.74448941473332 429.55653080651825 105.57355243840156 427.0749245672996 C 106.4026154620698 424.59331832808095 107.23167870069062 422.1117115086538 108.06074217123555 419.6301040975705 C 108.88980564178047 417.1484966864872 109.71886933301512 414.6668886911806 110.54793326167109 412.1852801007998 C 111.37699719032706 409.703671510419 112.20606134533226 407.2220623319978 113.03512574317133 404.7404525552855 C 113.86419014101041 402.25884277857324 114.43495081290806 399.67273080747844 115.52231964870553 397.2956214405261 C 116.60968848450301 394.9185120735737 117.88155488231116 392.47082604405676 119.5593387579562 390.4777963535712 C 121.23712263360123 388.4847666630856 123.355621043892 386.67872936809044 125.58902290257572 385.33744329761265 C 127.82242476125944 383.99615722713486 130.41209203609657 382.97466933298915 132.9597499100585 382.4300799307045 C 135.50740778402042 381.88549052841984 138.24140302717825 382.13228499870814 140.87497014634727 382.06990688390465 C 143.50853726551628 382.00752876910116 146.13242448881928 382.06050969141285 148.7611526250726 382.0558112418834 C 151.38988076132594 382.051112792354 154.0186095256018 382.04641444437044 156.64733896386727 382.0417161867282 C 159.27606840213275 382.03701792908595 161.90479848396734 382.0323197692975 164.53352925466555 382.0276216960298 C 167.16226002536376 382.02292362276216 169.79099145495843 382.0182256436116 172.41972358805646 382.01352774712217 C 175.04845572115448 382.00882985063276 177.6771885282522 382.0041320444813 180.3059220532537 381.99943431709323 C 182.93465557825522 381.99473658970516 185.56338979213038 381.99003894883424 188.19212473806542 381.98534138279365 C 190.82085968400045 381.98064381675306 193.4495953334488 381.9759463333701 196.078331728864 381.9712489208498 C 198.70706812427917 381.96655150832953 201.36151242906982 381.6495427492508 203.96454311055658 381.95715690767213 C 206.56757379204333 382.26477106609343 209.29020551097824 382.79451653756496 211.69651581778447 383.81693387137767 C 214.1028261245907 384.8393512051904 216.35703492784518 386.44977855575894 218.40240495139398 388.09166091054834 C 220.44777497494277 389.73354326533774 222.1132917392391 391.80937181131213 223.96873595907724 393.66822800011414 C 225.82418017891538 395.52708418891615 227.67962496423482 397.38594086894943 229.5350702704228 399.2447980433603 C 231.3905155766108 401.1036552177711 233.24596143359412 402.9625128846273 235.10140779620514 404.8213710465791 C 236.95685415881616 406.6802292085309 238.81230105734542 408.5390878639777 240.66774844608892 410.3979470150711 C 242.52319583483242 412.2568061661645 244.37864374443228 414.11566581163765 246.23409212866616 415.9745259531393 C 248.08954051290004 417.8333860946409 249.94498940274943 419.69224673124063 251.80043875149212 421.551107864081 C 253.65588810023482 423.4099689969214 255.51133793917927 425.2688306254104 257.36678822112236 427.1276927501815 C 259.22223850306546 428.9865548749526 261.07768925963 430.84541749575425 262.93314044315065 432.70428061270775 C 264.7885916266713 434.56314372966125 266.6440432690727 436.42200734285734 268.4994953222463 438.2808714519025 C 270.35494737541984 440.13973556094766 272.21039987157917 441.9986001662769 274.0658527621919 443.85746526697886 C 275.9213056528047 445.7163303676808 277.7767589703609 447.5751959645364 279.63221266592285 449.4340620561144 C 281.4876663614848 451.29292814769235 283.401608547914 453.1021934649625 285.1985749355637 455.01066181644677 C 286.99554132321344 456.91913016793103 288.67553193933475 458.9268015738911 290.41401099182104 460.88487216501994 C 292.15249004430734 462.8429427561488 293.8909694831235 464.8010138329704 295.6294492504815 466.75908536321987 C 297.3679290178395 468.71715689346934 299.1064091523788 470.6752288988181 300.8448895959692 472.6333013465169 C 302.58337003955967 474.59137379421566 304.32185083106174 476.54944670625576 306.06033191202414 478.50752004941273 C 307.79881299298654 480.4655933925697 309.47049504250515 482.4753777265339 311.2757760817438 484.3817414054587 C 313.08105712098245 486.28810508438346 314.7702412502277 488.4438001901461 316.8920181474559 489.9457021229614 C 319.01379504468406 491.4476040557767 321.5128374027994 492.65857139455323 324.00643746511287 493.3931530023505 C 326.50003752742634 494.1277346101478 329.24055798788635 494.19286996709576 331.8536185213369 494.353191769745 C 334.46667905478745 494.5135135723943 337.0744061318043 494.3544531583675 339.6848006658163 494.35508381824604 C 342.29519519982824 494.3557144781246 344.9055902235172 494.3563451096553 347.51598572540854 494.35697572901614 C 350.1263812272999 494.357606348377 352.7367772152072 494.35823694477483 355.3471736771643 494.358867534411 C 357.95757013912134 494.35949812404715 360.5679670832684 494.36012869611517 363.1783644971511 494.36075926683293 C 365.7887619110338 494.3613898375507 368.3991598031161 494.3620203961033 371.00955816046064 494.36265095871755 C 373.6199565178052 494.3632815213318 376.23035534919677 494.3639120771894 378.84075464121844 494.3645426425186 C 381.4511539332401 494.36517320784776 384.0615536949946 494.36580377183145 386.67195391259077 494.3664343506925 C 389.28235413018695 494.3670649295535 391.89267139491915 494.5525694428921 394.5031559467956 494.3683261156849 C 397.113640498672 494.1840827884777 399.8543227339952 494.04269905433483 402.33486122384943 493.26097438744927 C 404.81539971370364 492.4792497205637 407.2924755749421 491.2206071627748 409.386386885921 489.6779781143716 C 411.4802981968999 488.13534906596846 413.41654591732095 486.142603163802 414.89832908972284 484.00520009703024 C 416.3801122621247 481.8677970302585 417.56700995283126 479.3555528422974 418.27708592033235 476.85355971374116 C 418.98716188783345 474.3515665851849 419.2968875074936 471.59037616845524 419.15878489472937 468.99324132569274 C 419.02068228196515 466.39610648293024 418.41987944990893 463.68333227800014 417.448470243747 461.27075065716605 C 416.4770610375851 458.85816903633196 415.0304315257791 456.4859598547893 413.33032965775783 454.5177516006883 C 411.6302277897366 452.5495433465873 409.49356376749284 450.77337173955135 407.2478590356195 449.46150113256 C 405.0021543037462 448.1496305255686 402.37176482044833 447.3509078917828 399.8561012665177 446.6465279587401 C 397.3404377125871 445.94214802569735 394.72128597913036 445.70565709544195 392.15387771203604 445.2352215343035 C 389.5864694449417 444.76478597316503 387.0190607569367 444.29435032444746 384.4516516639519 443.8239145919093 C 381.8842425709671 443.3534788593711 379.3168330622426 442.88304304047676 376.74942315412716 442.41260713907434 C 374.1820132460117 441.9421712376719 371.6146029274686 441.4717352511661 369.0471922152592 441.00129918349484 C 366.4797815030498 440.5308631158236 363.9123703858641 440.0604269643327 361.34495888087076 439.5899907330468 C 358.7775473758774 439.11955450176094 356.21013547149704 438.64911818796827 353.642723185299 438.17868179577977 C 351.075310899101 437.70824540359126 348.5078982192406 437.23780893023815 345.9404851636825 436.76737237991586 C 343.37307210812446 436.29693582959356 340.80565866476275 435.82649919947744 338.23824485195075 435.3560624938461 C 335.67083103913876 434.8856257882147 333.1034168445132 434.4151890041887 330.53600228681063 433.9447521461276 C 327.96858772910804 433.4743152880665 325.401172795712 433.00387835303735 322.8337575057353 432.5334413454796 C 320.26634221575864 432.0630043379219 317.6989265563362 431.59256725484977 315.13151054695066 431.12213010078113 C 312.56409453756515 430.6516929467125 309.99667816510697 430.18125571861003 307.42926144942226 429.7108184210677 C 304.86184473373754 429.24038112352537 302.2944276614766 428.76994375345555 299.7270102528425 428.29950631552714 C 297.15959284420836 427.82906887759873 294.59217508561596 427.358631368675 292.0247569976176 426.88819379349735 C 289.45733890961924 426.4177562183197 286.889920478399 425.94731857370334 284.32250172485243 425.47688086446146 C 281.75508297130585 425.0064431552196 279.1876638813906 424.5360053781202 276.6202444763381 424.0655675380459 C 274.05282507128555 423.59512969797163 271.43648488572063 423.3514068902377 268.91798529453723 422.6542538240158 C 266.39948570335383 421.95710075779397 263.7627797005378 421.18139398194796 261.5092469292377 419.88264914071476 C 259.2557141579376 418.58390429948156 257.1084995990752 416.8201506079723 255.3967886667364 414.86178477661656 C 253.68507773439762 412.9034189452608 252.22450247424283 410.5395067020338 251.23898133520495 408.1324541525803 C 250.25346019616708 405.7254016031268 250.01712697868555 402.9954057292855 249.4836618325091 400.41946947989544 C 248.95019668633267 397.8435332305054 248.52001425391688 395.2577145512401 248.03819045814626 392.67683665624014 C 247.55636666237564 390.0959587612402 247.07454286176778 387.5150805790246 246.59271905788543 384.93420210989564 C 246.11089525400308 382.3533236407667 245.62907144580865 379.7724448844242 245.1472476348521 377.1915658414665 C 244.66542382389557 374.6106867985088 244.18360000914805 372.0298074684383 243.70177619214613 369.44892785214944 C 243.2199523751442 366.86804823586056 242.73812855486824 364.2871683326585 242.2563047328406 361.7062881437331 C 241.77448091081294 359.1254079548077 240.56992135009602 352.6732067671943 240.81083325998028 353.96364671859703 C 241.05174516986455 355.25408666999977 243.21995237011848 366.86804766322405 243.70177619214613 369.44892785214944 L 243.70177619214613 369.44892785214944 Z"
            fill-opacity="1" stroke-opacity="1" stroke-linecap="round" stroke-miterlimit="10"
            stroke-width="2" stroke-dasharray=""></path>
        <path fill="rgb(23,15,17)" stroke="rgb(23,15,17)" paint-order="fill stroke markers"
            d=" M 465.9496150425586 478.7290313782383 C 466.4830752217449 481.5647942969604 467.6140944359004 484.48404952095916 469.1304407839718 486.9390087561945 C 470.64678713204313 489.3939679914298 472.75080874264137 491.712232123872 475.0476931309868 493.4587867896502 C 477.3445775193322 495.2053414554284 480.14083134744726 496.6132548243485 482.9117471140441 497.41833675086355 C 485.6826628806409 498.2234186773786 488.7596299491121 498.1292205301331 491.67318773056786 498.28927834874065 C 494.58674551202364 498.4493361673482 497.4864584453752 498.3488818912526 500.3930938027788 498.37868366250854 C 503.29972916018244 498.4084854337645 506.20636451758605 498.43828720502046 509.11299987498967 498.4680889762764 C 512.0196352323933 498.4978907475324 514.926270589797 498.52769251878834 517.8329059472006 498.5574942900443 C 520.7395413046042 498.58729606130026 523.6461766620079 498.6170978325563 526.5528120194115 498.64689960381224 C 529.4594473768151 498.6767013750682 532.3660827342187 498.7065031463242 535.2727180916223 498.7363049175802 C 538.1793534490259 498.76610668883615 541.0859888064297 498.79590846009216 543.9926241638333 498.8257102313481 C 546.8992595212369 498.8555120026041 549.8058948786406 498.88531377386005 552.7125302360442 498.915115545116 C 555.6191655934479 498.94491731637197 558.5258009508516 498.974719087628 561.4324363082552 499.00452085888395 C 564.3390716656588 499.0343226301399 567.2457070230626 499.06412440139593 570.1523423804662 499.0939261726519 C 573.0589777378698 499.12372794390785 575.9564903713731 499.2518724263127 578.872248452677 499.1833314864198 C 581.7880065339809 499.1147905465269 584.8491564776546 499.36835523315233 587.6468908682898 498.6826805332946 C 590.444625258925 497.9970058334369 593.2927656395676 496.7124619177739 595.6586547964882 495.0692832872735 C 598.0245439534089 493.4261046567731 599.9324739367412 491.0145829252004 601.8422258098136 488.82360875029195 C 603.751977682886 486.6326345753835 605.3588526265532 484.22349507531254 607.117166034923 481.92343823782284 C 608.8754794432928 479.62338140033313 610.6337928516625 477.32332456284337 612.3921062600324 475.02326772535366 C 614.1504196684023 472.72321088786396 615.9087330767723 470.4231540503742 617.6670464851421 468.12309721288443 C 619.425359893512 465.82304037539467 621.1836733018818 463.5229835379049 622.9419867102516 461.22292670041514 C 624.7003001186215 458.9228698629254 626.4586135269914 456.6228130254355 628.2169269353612 454.32275618794574 C 629.9752403437311 452.022699350456 631.733553752101 449.72264251296633 633.4918671604709 447.4225856754766 C 635.2501805688407 445.1225288379869 637.0084939772105 442.8224720004972 638.7668073855804 440.52241516300745 C 640.5251207939502 438.2223583255177 642.28343420232 435.922301488028 644.0417476106899 433.6222446505382 C 645.8000610190597 431.32218781304846 647.5583744274295 429.0221309755588 649.3166878357994 426.72207413806905 C 651.0750012441692 424.4220173005793 653.1730389157123 422.33047802859977 654.591628060909 419.82190362559976 C 656.0102172061057 417.31332922259975 656.8436079116774 414.40968732023595 657.8282227069795 411.6706277200691 C 658.8128375022817 408.93156811990224 659.6089521241411 406.148573256422 660.4993168327219 403.3875460245985 C 661.3896815413027 400.626518792775 662.2800462498834 397.86549156095145 663.1704109584642 395.10446432912795 C 664.060775667045 392.34343709730445 664.9511403756258 389.582409865481 665.8415050842066 386.8213826336575 C 666.7318697927874 384.060355401834 667.6222345013682 381.2993281700105 668.512599209949 378.538300938187 C 669.4029639185298 375.7772737063635 670.2933286271104 373.0162464745399 671.1836933356913 370.2552192427164 C 672.0740580442721 367.4941920108929 672.9644227528528 364.7331647790694 673.8547874614336 361.9721375472459 C 674.7451521700144 359.2111103154224 675.6355168785951 356.45008308359894 676.525881587176 353.68905585177544 C 677.4162462957568 350.92802861995193 678.1141838944443 348.10926242683433 679.1969757129182 345.4059741563049 C 680.279767531392 342.7026858857755 681.3146224761257 339.79734774929926 683.0226324980193 337.469326228599 C 684.730642519913 335.14130470789877 687.0144755609314 332.9964851909406 689.44503584428 331.4378450321033 C 691.8755961276287 329.8792048732661 694.7776664788636 328.69847128940586 697.6059941981115 328.11748527557546 C 700.4343219173594 327.53649926174506 703.5668413741352 327.47762675123437 706.4150021597673 327.9519289491209 C 709.2631629453994 328.4262311470074 712.2075496164333 329.4970865298722 714.6949589119042 330.9632984628946 C 717.1823682073751 332.429510395917 719.5451793835523 334.487000970696 721.3394579325927 336.74920054725544 C 723.1337364816332 339.0114001238149 724.2020812575605 341.9006232573315 725.4606302061468 344.53649592225133 C 726.7191791547331 347.17236858717115 727.7473778181225 349.88845633193347 728.8907516241103 352.5644365367745 C 730.0341254300981 355.24041674161555 731.177499236086 357.91639694645664 732.3208730420738 360.5923771512977 C 733.4642468480616 363.2683573561387 734.6076206540496 365.9443375609798 735.7509944600374 368.62031776582086 C 736.8943682660253 371.2962979706619 738.0377420720132 373.972278175503 739.181115878001 376.64825838034403 C 740.3244896839889 379.32423858518507 741.4678634899767 382.00021879002617 742.6112372959645 384.6761989948672 C 743.7546111019524 387.35217919970825 744.8979849079402 390.02815940454934 746.041358713928 392.7041396093904 C 747.1847325199159 395.3801198142314 748.3281063259038 398.05610001907246 749.4714801318917 400.7320802239135 C 750.6148539378795 403.40806042875454 751.7582277438675 406.0840406335957 752.9016015498553 408.76002083843673 C 754.0449753558431 411.43600104327777 755.1581945046834 414.12069542103774 756.3317229678188 416.7879614529599 C 757.5052514309542 419.4552274848821 758.3039741449643 422.4077405349526 759.9427723286677 424.76361702996985 C 761.5815705123712 427.1194935249871 763.7923058853031 429.3081503429177 766.1645120700397 430.9232204230635 C 768.5367182547762 432.53829050320934 771.3833980189121 433.79287564430825 774.1760094370874 434.4540375108446 C 776.9686208552627 435.115199377381 780.0756374220365 435.2701755355433 782.9201805790913 434.8901916222817 C 785.764723736146 434.5102077090201 788.7221191556043 433.54512642292394 791.2432683794159 432.174134031275 C 793.7644176032275 430.80314163962606 796.1819758152666 428.8453413823963 798.0470759219604 426.66423727238794 C 799.9121760286542 424.48313316237954 801.4709102537698 421.79093755818224 802.4338690195789 419.0875093712247 C 803.3968277853879 416.3840811842672 803.8910695072663 413.31271427747134 803.8248285168146 410.44366815064296 C 803.7585875263629 407.5746220238146 803.1231235996188 404.52933793959295 802.0364230768688 401.87323261025455 C 800.9497225541188 399.21712728091615 799.0786889682402 396.78536418018797 797.3046253803146 394.50703617461267 C 795.5305617923891 392.22870816903736 793.3629028263153 390.3045217760727 791.3920415493158 388.2032645768027 C 789.4211802723162 386.10200737753274 787.4503189953164 384.00075017826265 785.4794577183168 381.89949297899267 C 783.5085964413172 379.7982357797227 781.5377351643176 377.6969785804527 779.5668738873179 375.5957213811827 C 777.5960126103182 373.49446418191275 775.6251513333186 371.39320698264277 773.6542900563189 369.29194978337273 C 771.6834287793192 367.1906925841027 769.7125675023196 365.08943538483265 767.7417062253201 362.9881781855626 C 765.7708449483205 360.8869209862926 763.4959748975009 359.0207254127536 761.8291223943212 356.68440658775256 C 760.1622698911415 354.3480877627515 759.0522601112978 351.5598829642184 757.7405912062418 348.9702652355562 C 756.4289223011858 346.38064750689404 755.2196030447377 343.75455522237183 753.9591089639857 341.1467002157796 C 752.6986148832337 338.5388452091874 751.4381208024818 335.93099020259507 750.1776267217298 333.32313519600285 C 748.9171326409778 330.71528018941063 747.6566385602257 328.1074251828185 746.3961444794737 325.49957017622626 C 745.1356503987217 322.89171516963404 743.8751563179698 320.2838601630418 742.6146622372178 317.6760051564496 C 741.3541681564658 315.0681501498574 740.0936740757138 312.4602951432651 738.8331799949618 309.8524401366729 C 737.5726859142098 307.2445851300807 736.3121918334577 304.63673012348846 735.0516977527058 302.02887511689624 C 733.7912036719538 299.421020110304 732.5307095912017 296.81316510371187 731.2702155104497 294.20531009711965 C 730.0097214296977 291.59745509052743 728.7492273489456 288.9896000839352 727.4887332681936 286.381745077343 C 726.2282391874417 283.7738900707508 724.9677451066896 281.16603506415856 723.7072510259376 278.55818005756635 C 722.4467569451856 275.95032505097413 721.325189856894 273.2837239121083 719.9257687836816 270.73461503778975 C 718.5263477104693 268.1855061634712 717.2441026942417 265.3956885724747 715.3107245866631 263.263526811655 C 713.3773464790845 261.13136505083537 710.8943944815985 259.23966085707923 708.3255001382098 257.94164447287164 C 705.7566057948211 256.64362808866406 702.7607577437333 255.76699256959867 699.8973585263305 255.47542850640968 C 697.0339593089278 255.1838644432207 693.9229031147062 255.43866776911975 691.1451048337932 256.19226009373773 C 688.3673065528802 256.9458524183557 685.5540235871201 258.29827037633214 683.2305688408528 259.9969824541176 C 680.9071140945855 261.69569453190303 678.7650574180328 263.96619856689824 677.2043763561896 266.3845325604504 C 675.6436952943465 268.80286655400255 674.7119102671883 271.7377726816037 673.8664824697937 274.5069864154307 C 673.0210546723991 277.27620014925765 672.7100338711462 280.1688721140851 672.1318095718223 282.9998149634123 C 671.5535852724984 285.8307578127395 670.9753609731745 288.6617006620667 670.3971366738507 291.4926435113939 C 669.8189123745269 294.3235863607211 669.240688075203 297.15452921004834 668.6624637758792 299.9854720593755 C 668.0842394765555 302.8164149087027 667.5060151772316 305.64735775802995 666.9277908779078 308.47830060735714 C 666.349566578584 311.3092434566843 665.7713422792601 314.14018630601157 665.1931179799363 316.97112915533876 C 664.6148936806126 319.80207200466594 664.0366693812887 322.63301485399313 663.4584450819649 325.4639577033204 C 662.8802207826411 328.2949005526476 662.3019964833172 331.12584340197486 661.7237721839934 333.95678625130205 C 661.1455478846697 336.78772910062924 660.5673235853458 339.6186719499564 659.989099286022 342.4496147992836 C 659.4108749866982 345.2805576486108 658.8769891854964 348.11542404202754 658.2544263880505 350.9424433472652 C 657.6318635906047 353.7694626525029 657.4001673052887 356.7990594193683 656.2537225013468 359.41173063070977 C 655.1072776974049 362.02440184205125 653.3753044628145 364.5832313792305 651.3757575643988 366.61847061531415 C 649.3762106659831 368.6537098513978 646.6501992596523 369.99570144617314 644.256441110853 371.62316604721167 C 641.8626829620537 373.2506306482502 639.4276194846864 374.79656083010065 637.013208671603 376.38325822154513 C 634.5987978585197 377.9699556129896 632.1843870454364 379.55665300443417 629.7699762323531 381.14335039587866 C 627.3555654192697 382.73004778732314 624.8623222629914 384.18351780394005 622.5267437931032 385.9034425702122 C 620.1911653232149 387.6233673364843 617.6796528068046 389.32433533930265 615.7565054130238 391.46289899351126 C 613.833358019243 393.60146264771987 612.5774080912868 396.3108493281462 610.9878594304183 398.7348244954637 C 609.3983107695499 401.15879966278123 607.8087621086814 403.5827748300988 606.219213447813 406.0067499974163 C 604.6296647869445 408.4307251647338 603.0401161260762 410.8547003320514 601.4505674652078 413.2786754993689 C 599.8610188043393 415.7026506666864 598.271470143471 418.1266258340038 596.6819214826025 420.55060100132124 C 595.0923728217341 422.9745761686387 593.6480114682636 425.4858170954244 591.9132754999972 427.8225265032737 C 590.1785395317308 430.159235911123 588.494364710428 432.7335144667197 586.2735056730045 434.5708574484172 C 584.0526466355809 436.4082004301147 581.3203076360159 437.92832419739864 578.5881212754557 438.8465843934585 C 575.8559349148956 439.76484458951836 572.7828994986535 439.690144784451 569.8803875096434 440.08041862477626 C 566.9778755206332 440.47069246510154 564.0754953974779 440.8189578318656 561.1730493413952 441.1882274354103 C 558.2706032853125 441.557497038955 555.3681572292297 441.9267666424996 552.4657111731469 442.2960362460443 C 549.5632651170641 442.665305849589 546.6608190609815 443.03457545313364 543.7583730048987 443.40384505667834 C 540.8559269488159 443.77311466022303 537.9534808927332 444.14238426376767 535.0510348366504 444.51165386731236 C 532.1485887805676 444.88092347085706 529.2461427244849 445.2501930744017 526.3436966684021 445.6194626779464 C 523.4412506123193 445.9887322814911 520.5388045562366 446.3580018850357 517.6363585001538 446.7272714885804 C 514.733912444071 447.0965410921251 511.83146638798837 447.46581069566975 508.92902033190563 447.83508029921444 C 506.0265742758229 448.20434990275913 503.1241282197401 448.57361950630377 500.22168216365736 448.94288910984847 C 497.3192361075746 449.31215871339316 494.41679005149183 449.6814283169378 491.5143439954091 450.0506979204825 C 488.61189793932635 450.4199675240272 485.56590269780986 450.30801848132234 482.8070058271608 451.1585067311165 C 480.0481089565118 452.0089949809107 477.2499145686862 453.39668952501177 474.96096277151474 455.15362741924764 C 472.67201097434327 456.9105653134835 470.57850888790875 459.2383334590958 469.07329504413195 461.7001340965316 C 467.56808120035515 464.16193473396737 466.45029304244946 467.08628169691104 465.9296797088539 469.92443124386216 C 465.4090663752583 472.7625807908133 465.4161548633723 475.8932684595162 465.9496150425586 478.7290313782383 C 466.4830752217449 481.5647942969604 469.1337633395892 488.40644211192387 469.1304407839718 486.9390087561945 C 469.12711822835433 485.4715754004651 466.4631398880402 472.7601941625842 465.9296797088539 469.92443124386216 L 465.9296797088539 469.92443124386216 Z"
            fill-opacity="1" stroke-opacity="1" stroke-linecap="round" stroke-miterlimit="10"
            stroke-width="2" stroke-dasharray=""></path>
        <path fill="rgb(23,15,17)" stroke="rgb(23,15,17)" paint-order="fill stroke markers"
            d=" M 421.56663056558716 248.55583322343563 C 419.0553625215201 249.3810092744629 416.5514746603359 250.70080517487884 414.4514712872826 252.30631138470665 C 412.35146791422926 253.91181759453445 410.42144474344354 255.98174140431877 408.96661032726723 258.1888704824024 C 407.5117759110909 260.3959995604861 406.5780862178366 263.03384706810704 405.72246479022465 265.54908585320857 C 404.8668433626127 268.0643246383101 404.4628319422924 270.70324372423073 403.8328817615957 273.2803031930116 C 403.20293158089896 275.8573626617925 402.57273179850233 278.4343914039203 401.9427637060445 281.0114426658938 C 401.3127956135867 283.5884939278673 400.682947795308 286.16558510740373 400.05307320684864 288.7426107648527 C 399.4231986183893 291.3196364223017 398.7934344642822 293.8965754774687 398.1635161752884 296.4735966105876 C 397.5335978862946 299.05061774370654 396.90353967836325 301.6277449897906 396.2735634728858 304.20473756356614 C 395.6435872674084 306.7817301373417 395.0135640404267 309.3585200669762 394.38365894242384 311.93555205324094 C 393.753753844421 314.51258403950567 393.1239495552912 317.0898171076558 392.49413288486886 319.66692948115445 C 391.86431621444655 322.2440418546531 391.23462467441783 324.8210963164042 390.60475891989 327.39822629423287 C 389.9748931653622 329.97535627206156 389.3448892869022 332.5525907241812 388.7149383577019 335.1297093481265 C 388.0849874285016 337.7068279720718 387.47498431624604 340.28649214347314 386.8250533446883 342.86093803790453 C 386.17512237313053 345.4353839323359 385.88685961199735 348.18374597774175 384.8153525283553 350.5763847147149 C 383.7438454447132 352.96902345168803 382.1863517762961 355.3062417938602 380.39601084283595 357.2167704597432 C 378.6056699093758 359.1272991256262 376.42541798965846 360.8554509872451 374.0733069275945 362.039556710013 C 371.72119586553055 363.22366243278094 368.6741395233921 363.16083956844534 366.2833444704521 364.32140479635075 C 363.8925494175121 365.48197002425616 361.5956030275679 367.125555985488 359.7285366099543 369.0029480774455 C 357.8614701923407 370.88034016940304 356.2252005841933 373.1975575460029 355.0809459647703 375.5857573480959 C 353.9366913453473 377.97395715018894 353.15612036221046 380.7003152384008 352.86300889341624 383.3321468900038 C 352.569897424622 385.9639785416068 352.73153653771783 388.7953650491261 353.32227715200503 391.3767472577139 C 353.9130177662922 393.95812946630167 354.99883267208105 396.57798458100854 356.4074525791395 398.82044014153064 C 357.8160724861979 401.06289570205274 359.7049031565072 403.1786108094756 361.77399659435565 404.83148062084666 C 363.8430900322041 406.48435043221775 366.3237384920413 407.8591817620186 368.82201320623 408.73765900975707 C 371.3202879204187 409.61613625749555 374.11543711140337 410.09644712842885 376.76364487948786 410.1023441072774 C 379.41185264757235 410.108241086126 382.209145338633 409.6403474907484 384.71125981473676 408.7730408828485 C 387.21337429084053 407.90573427494854 389.62032239307564 406.44750347727086 391.77633173611036 404.8985044598779 C 393.9323410791451 403.349505442485 395.69031027945016 401.28544016488473 397.647315872945 399.4790467784909 C 399.60432146643984 397.67265339209706 401.56128719847743 395.86647378145574 403.5183652970793 394.06014414151497 C 405.47544339568117 392.2538145015742 407.4318297057869 390.44667196668337 409.38978446455627 388.6410689388461 C 411.3477392233256 386.83546591100884 413.307234852988 385.0313095764352 415.26609384969544 383.2265259744914 C 417.22495284640286 381.42174237254756 419.18398280139064 379.617149911251 421.14293844480085 377.81236732718327 C 423.10189408821105 376.00758474311556 425.0609701490937 374.2026604984885 427.01982771015656 372.39783047008524 C 428.97868527121943 370.59300044168197 430.93726035282225 368.7881492843147 432.8960838111779 366.98338715676346 C 434.85490726953356 365.1786250292122 436.83502255094965 363.4021837057466 438.77276846029065 361.56925770477744 C 440.71051436963165 359.7363317038083 442.65902006346226 357.88877763440667 444.522559267224 355.9858311509484 C 446.3860984709857 354.08288466749013 448.14339284491075 352.0963524600261 449.954003682861 350.1515788040279 C 451.7646145208113 348.20680514802973 453.57549394052705 346.26201503781533 455.38622429492546 344.3171892149592 C 457.19695464932386 342.3723633921031 459.0076315855977 340.4275742110535 460.81838580925125 338.4826238668912 C 462.6291400329048 336.5376735227288 464.4399217139115 334.59255596440573 466.2507496368467 332.647487149985 C 468.06157755978194 330.7024183355643 469.83802638596103 328.7307025875202 471.68335334686253 326.8122109803668 C 473.52868030776403 324.89371937321334 475.1850792884575 322.6686243717378 477.3227114022558 321.1365375070643 C 479.4603435160541 319.6044506423908 481.98775575346366 318.36760106791314 484.5091460296523 317.619689792326 C 487.03053630584094 316.8717785167389 489.8237908276318 316.5304200106868 492.4510530593877 316.6490698535416 C 495.07831529114355 316.76771969639645 497.8289675956008 317.35935583574576 500.27271942018746 318.33158884945516 C 502.71647124477414 319.30382186316456 505.1224788086571 320.76349642924004 507.1135640069079 322.48246793579784 C 509.1046492051587 324.20143944235565 510.583069661844 326.5499686405127 512.2192306096921 328.64541788880206 C 513.8553915575402 330.7408671370914 515.3602173840443 332.9187386270945 516.9305296939966 335.05516342553415 C 518.500842003949 337.1915882239738 520.0710286255096 339.3279055530024 521.6411044694057 341.4639666794399 C 523.2111803133018 343.60002780587746 524.7810367554297 345.73562548311475 526.3509847573737 347.87153018415927 C 527.9209327593177 350.0074348852038 529.4000249120884 352.20244600324514 531.0607924810698 354.2793948857072 C 532.7215600500513 356.3563437681692 534.2814383588972 358.6582852023334 536.3155901712624 360.3332234789315 C 538.3497419836277 362.00816175552956 540.7950090713326 363.41386067437884 543.2657033552615 364.3290245452957 C 545.7363976391904 365.2441884162125 548.5060239053926 365.7698733744449 551.1397558748355 365.82420670443264 C 553.7734878442784 365.8785400344204 556.5620154733317 365.4674077573799 559.068095171919 364.655024525222 C 561.5741748705063 363.84264129306416 564.0748240938324 362.53939480309725 566.1762340663597 360.94990731148545 C 568.277644038887 359.36041981987364 570.2126507031334 357.3087137585246 571.6765550070827 355.1180995755511 C 573.140459311032 352.92748539257764 574.295149904807 350.3554293299449 574.9596598900556 347.80622221364433 C 575.6241698753042 345.25701509734375 575.8718077905698 342.4490931342839 575.6636149185745 339.82285687774754 C 575.4554220465791 337.1966206212112 574.7685725977097 334.46190066833805 573.7105026580834 332.0488046744264 C 572.6524327184571 329.6357086805147 571.1060473924801 327.27692752697686 569.3151952808165 325.34428091427765 C 567.5243431691529 323.41163430157843 565.2905733043054 321.69122075957154 562.9653899881014 320.45292499823114 C 560.6402066718973 319.21462923689074 557.9153178897246 318.67016514205244 555.3640953835923 317.91450634623527 C 552.8128728774599 317.1588475504181 550.2269295587847 316.58417765491146 547.6580549513073 315.9189722233282 C 545.08918034383 315.2537667917449 542.519811267718 314.58853278292986 539.9508477387278 313.9232737567356 C 537.3818842097377 313.2580147305414 534.8130060789168 312.59269295536456 532.2442737773667 311.9274180661626 C 529.6755414758167 311.26214317696065 527.106966873847 310.5968326090758 524.5384539294273 309.9316244215239 C 521.9699409850076 309.266416233972 519.4015771096145 308.60129808561317 516.8331961108488 307.93616894085096 C 514.264815112083 307.27103979608876 511.69674471505186 306.60598360204295 509.1281679368331 305.94084955295085 C 506.55959115861435 305.27571550385875 503.9907180097247 304.6105599460391 501.42173544153627 303.94536464629834 C 498.85275287334787 303.2801693465576 496.28328367377424 302.6149615005684 493.71427252770275 301.9496777545066 C 491.14526138163126 301.28439400844474 488.53109933593225 300.79811974264567 486.00766856510717 299.95366216992716 C 483.4842377942821 299.10920459720865 480.81431421656407 298.2857025573811 478.5736879027524 296.8829323181955 C 476.3330615889407 295.4801620790099 474.3284931368192 293.5153190842277 472.56391068223724 291.5370407348137 C 470.7993282276553 289.55876238539963 469.51209090531097 287.18799045959673 467.9861931752606 285.01326222171133 C 466.46029544521025 282.8385339838259 464.9344981337511 280.66361477041073 463.40852430193496 278.48867130750125 C 461.8825504701188 276.31372784459177 460.3564298121411 274.13854864790585 458.83035018436385 271.9636014442544 C 457.30427055658663 269.7886542406029 455.7781699764997 267.61398134470437 454.2520465352718 265.43898808559254 C 452.7259230940439 263.2639948264807 451.31538847960223 261.0135817606606 449.67360953699637 258.91364188958335 C 448.0318305943905 256.8137020185061 446.4429079283047 254.51859882945953 444.4013728796365 252.83934885912893 C 442.3598378309683 251.16009888879833 439.90478146631233 249.75215769769733 437.424399244987 248.83814206759968 C 434.9440170236617 247.92412643750203 432.1620409982513 247.4023065525703 429.5190795516847 247.35525507854297 C 426.87611810511805 247.30820360451563 424.0778986096542 247.73065717240834 421.56663056558716 248.55583322343563 C 419.0553625215201 249.3810092744629 413.126063122933 252.50640774218874 414.4514712872826 252.30631138470665 C 415.77687945163217 252.10621502722455 427.00781150761765 248.18043112957025 429.5190795516847 247.35525507854297 L 429.5190795516847 247.35525507854297 Z"
            fill-opacity="1" stroke-opacity="1" stroke-linecap="round" stroke-miterlimit="10"
            stroke-width="2" stroke-dasharray=""></path>
    </g>
</svg>